{
  "title": "Son.of.Saul.[Saul.Fia].2015.1080p.BRRip.AC3.x264.HORiZON-ArtSubs",
  "uid": 14174701,
  "size": 1860274985,
  "categoryP": "video",
  "categoryS": "movies",
  "magnet": "?xt=urn:btih:fc84dfc3a36123769ec9b78cd45916f6ddd47755&amp;dn=Son.of.Saul.%5BSaul.Fia%5D.2015.1080p.BRRip.AC3.x264.HORiZON-ArtSubs&amp;tr=udp%3A%2F%2Ftracker.leechers-paradise.org%3A6969&amp;tr=udp%3A%2F%2Fzer0day.ch%3A1337&amp;tr=udp%3A%2F%2Fopen.demonii.com%3A1337&amp;tr=udp%3A%2F%2Ftracker.coppersurfer.tk%3A6969&amp;tr=udp%3A%2F%2Fexodus.desync.com%3A6969",
  "seeders": 61,
  "leechers": 8,
  "uploader": "noriegaRJ",
  "files": 1,
  "time": 1459795693,
  "description": "Title: Saul Fia aka Son of Saul\r\n\r\nRelease: Son.of.Saul.[Saul.Fia].2015.1080p.BRRip.AC3.x264.HORiZON-ArtSubs\r\n\r\n\r\nIMDB Link:                                                              \nhttp://www.imdb.com/title/tt3808342/\r\n\r\n\r\nPlot: In the horror of 1944 Auschwitz, a prisoner forced to burn the corpses of his own people finds moral survival upon trying to salvage from the flames the body of a boy he takes for his son.\r\n\r\n\r\nGeneral\r\nComplete name                            : Son.of.Saul.[Saul.Fia].2015.1080p.BRRip.AC3.x264.HORiZON-ArtSubs\r\nFormat                                   : Matroska\r\nFormat version                           : Version 2\r\nFile size                                : 1.73 GiB\r\nDuration                                 : 1h 47mn\r\nOverall bit rate                         : 2 314 Kbps\r\nWriting application                      : HandBrake 0.9.5\r\nWriting library                          : libmkv 0.6.4.1\r\n\r\nVideo\r\nID                                       : 1\r\nFormat                                   : AVC\r\nFormat/Info                              : Advanced Video Codec\r\nFormat profile                           :   \r\nFormat settings, CABAC                   : Yes\r\nFormat settings, ReFrames                : 4 frames\r\nCodec ID                                 : V_MPEG4/ISO/AVC\r\nDuration                                 : 1h 47mn\r\nBit rate                                 : 1 704 Kbps\r\nWidth                                    : 1 488 pixels\r\nHeight                                   : 1 088 pixels\r\nDisplay aspect ratio                     : 4:3\r\nOriginal display aspect ratio            : 1.370\r\nFrame rate mode                          : Constant\r\nFrame rate                               : 23.976 fps\r\nColor space                              : YUV\r\nChroma subsampling                       : 4:2:0\r\nBit depth                                : 8 bits\r\nScan type                                : Progressive\r\nBits/(Pixel*Frame)                       : 0.044\r\nStream size                              : 1.22 GiB (70%)\r\nWriting library                          : x264 core 112\r\nLanguage                                 : English\r\nDefault                                  : Yes\r\nForced                                   : No\r\nColor primaries                          : BT.709\r\nTransfer characteristics                 : BT.709\r\nMatrix coefficients                      : BT.709\r\n\r\nAudio\r\nID                                       : 2\r\nFormat                                   : AC-3\r\nFormat/Info                              : Audio Coding 3\r\nMode extension                           : CM (complete main)\r\nFormat settings, Endianness              : Big\r\nCodec ID                                 : A_AC3\r\nDuration                                 : 1h 47mn\r\nBit rate mode                            : Constant\r\nBit rate                                 : 640 Kbps\r\nChannel count                            : 6 channels\r\nChannel positions                        : Front: L C R, Side: L R, LFE\r\nSampling rate                            : 48.0 KHz\r\nBit depth                                : 16 bits\r\nCompression mode                         : Lossy\r\nStream size                              : 491 MiB (28%)\r\nDefault                                  : Yes\r\nForced                                   : No\r\n\r\n\r\n\r\nThanks to those helping me seed. Leechers remember, the community depends on you. If nobody shares, the freebies go away. Remember, the only reason you can download this free movie is because others are generous enough to keep sharing it with you. If nobody shares, everybody loses, so even if its for an extra hour or two after you get it, remember, others want to see it too, and they can't without you.\r\n\r\n\r\nSEE MY OTHERS UPLOADS:                                                                                      \nhttp://thepiratebay.se/user/noriegaRJ\r\n\r\nAND SEE THIS ANOTHERS UPLOADS FROM &quot;HORiZON-ArtSubs&quot;:                                      \nhttp://thepiratebay.se/user/artsubs                                      \nhttp://thepiratebay.se/user/lletaif",
  "parsed": {
    "xt": "urn:btih:fc84dfc3a36123769ec9b78cd45916f6ddd47755",
    "dn": "Son.of.Saul.[Saul.Fia].2015.1080p.BRRip.AC3.x264.HORiZON-ArtSubs",
    "tr": [
      "udp://exodus.desync.com:6969",
      "udp://open.demonii.com:1337",
      "udp://tracker.coppersurfer.tk:6969",
      "udp://tracker.leechers-paradise.org:6969",
      "udp://zer0day.ch:1337"
    ],
    "infoHash": "fc84dfc3a36123769ec9b78cd45916f6ddd47755",
    "infoHashBuffer": {
      "type": "Buffer",
      "data": [
        252,
        132,
        223,
        195,
        163,
        97,
        35,
        118,
        158,
        201,
        183,
        140,
        212,
        89,
        22,
        246,
        221,
        212,
        119,
        85
      ]
    },
    "name": "Son.of.Saul.[Saul.Fia].2015.1080p.BRRip.AC3.x264.HORiZON-ArtSubs",
    "announce": [
      "udp://exodus.desync.com:6969",
      "udp://open.demonii.com:1337",
      "udp://tracker.coppersurfer.tk:6969",
      "udp://tracker.leechers-paradise.org:6969",
      "udp://zer0day.ch:1337"
    ],
    "urlList": []
  },
  "previous": 69,
  "peers": 203,
  "last_updated": "2016-12-25T18:53:07.850Z"
}